<svg width="20" height="20" viewBox="0 0 20 20" fill="none" xmlns="http://www.w3.org/2000/svg">
<g clip-path="url(#clip0_437_7869)">
<mask id="mask0_437_7869" style="mask-type:alpha" maskUnits="userSpaceOnUse" x="0" y="0" width="20" height="20">
<rect width="20" height="20" fill="#D9D9D9"/>
</mask>
<g mask="url(#mask0_437_7869)">
<path d="M12.2442 14C12.4564 14 12.6354 13.9281 12.7812 13.7844C12.9271 13.6406 13 13.4625 13 13.25V6.75C13 6.5375 12.9282 6.35937 12.7846 6.21562C12.641 6.07187 12.4631 6 12.2508 6H7.75583C7.54361 6 7.36458 6.07187 7.21875 6.21562C7.07292 6.35937 7 6.5375 7 6.75V13.25C7 13.4625 7.07181 13.6406 7.21542 13.7844C7.35903 13.9281 7.53694 14 7.74917 14H12.2442ZM8.5 12.5V7.5H11.5V12.5H8.5ZM4.5 17C4.0875 17 3.73437 16.8531 3.44062 16.5594C3.14687 16.2656 3 15.9125 3 15.5V4.5C3 4.0875 3.14687 3.73438 3.44062 3.44063C3.73437 3.14688 4.0875 3 4.5 3H15.5C15.9125 3 16.2656 3.14688 16.5594 3.44063C16.8531 3.73438 17 4.0875 17 4.5V15.5C17 15.9125 16.8531 16.2656 16.5594 16.5594C16.2656 16.8531 15.9125 17 15.5 17H4.5ZM4.5 15.5H15.5V4.5H4.5V15.5ZM9.99563 10C10.2069 10 10.3854 9.92854 10.5312 9.78562C10.6771 9.64271 10.75 9.46563 10.75 9.25438C10.75 9.04313 10.6785 8.86458 10.5356 8.71875C10.3927 8.57292 10.2156 8.5 10.0044 8.5C9.79312 8.5 9.61458 8.57146 9.46875 8.71437C9.32292 8.85729 9.25 9.03437 9.25 9.24562C9.25 9.45687 9.32146 9.63542 9.46438 9.78125C9.60729 9.92708 9.78438 10 9.99563 10Z" fill="#BAC8DE"/>
</g>
</g>
<defs>
<clipPath id="clip0_437_7869">
<rect width="20" height="20" fill="white"/>
</clipPath>
</defs>
</svg>
